HIERARCHY
ROOT root
{
	OFFSET	0	13.1	24.9
	CHANNELS 6  Xposition Yposition Zposition Xrotation Yrotation Zrotation
	JOINT spine_1
	{
		OFFSET	0	9.99999	0
		CHANNELS 3  Xrotation Yrotation Zrotation
		JOINT spine_2
		{
			OFFSET	0	112	-10
			CHANNELS 3  Xrotation Yrotation Zrotation
			JOINT spine_3
			{
				OFFSET	0	206.5	19.3
				CHANNELS 3  Xrotation Yrotation Zrotation
				JOINT spine_4
				{
					OFFSET	0	110.4	14.6
					CHANNELS 3  Xrotation Yrotation Zrotation
					JOINT neck_1
					{
						OFFSET	0	71.8	-50.3
						CHANNELS 3  Xrotation Yrotation Zrotation
						JOINT neck_2
						{
							OFFSET	0	86.2	-25.8
							CHANNELS 3  Xrotation Yrotation Zrotation
							JOINT head_ee
							{
								OFFSET	0	179.8	-8.7
								CHANNELS 3  Xrotation Yrotation Zrotation
								End Site
								{
									OFFSET	1	0	0
								}
							}
						}
					}
					JOINT left_clavicle
					{
						OFFSET	-43.2	22.4	-70.8
						CHANNELS 3  Xrotation Yrotation Zrotation
						JOINT left_shoulder
						{
							OFFSET	-93.9	-5.79999	48.7
							CHANNELS 3  Xrotation Yrotation Zrotation
							JOINT left_elbow
							{
								OFFSET	-291.4	-30.8	15.2
								CHANNELS 3  Xrotation Yrotation Zrotation
								JOINT left_lowarm_twist
								{
									OFFSET	-110.7	-3.89999	13.6
									CHANNELS 3  Xrotation Yrotation Zrotation
									JOINT left_hand
									{
										OFFSET	-110.7	-3.89999	13.6
										CHANNELS 3  Xrotation Yrotation Zrotation
										JOINT left_ee
										{
											OFFSET	-80.8	-5.10001	12.1
											CHANNELS 3  Xrotation Yrotation Zrotation
											End Site
											{
												OFFSET	1	0	0
											}
										}
									}
								}
							}
						}
					}
					JOINT right_clavicle
					{
						OFFSET	43.2	22.4	-70.8
						CHANNELS 3  Xrotation Yrotation Zrotation
						JOINT right_shoulder
						{
							OFFSET	93.9	-5.79999	48.7
							CHANNELS 3  Xrotation Yrotation Zrotation
							JOINT right_elbow
							{
								OFFSET	291.4	-30.8	15.2
								CHANNELS 3  Xrotation Yrotation Zrotation
								JOINT right_lowarm_twist
								{
									OFFSET	110.7	-3.89999	13.6
									CHANNELS 3  Xrotation Yrotation Zrotation
									JOINT right_hand
									{
										OFFSET	110.7	-3.89999	13.6
										CHANNELS 3  Xrotation Yrotation Zrotation
										JOINT right_ee
										{
											OFFSET	80.8	-5.10001	12.1
											CHANNELS 3  Xrotation Yrotation Zrotation
											End Site
											{
												OFFSET	1	0	0
											}
										}
									}
								}
							}
						}
					}
				}
			}
		}
	}
	JOINT left_hip
	{
		OFFSET	-82.8	-127.5	0.300001
		CHANNELS 3  Xrotation Yrotation Zrotation
		JOINT left_knee
		{
			OFFSET	-28.2	-396.7	2.2
			CHANNELS 3  Xrotation Yrotation Zrotation
			JOINT left_ankle
			{
				OFFSET	-11.7	-411.3	35.4
				CHANNELS 3  Xrotation Yrotation Zrotation
				JOINT left_toes
				{
					OFFSET	0	-60	-88.6
					CHANNELS 3  Xrotation Yrotation Zrotation
					JOINT left_foot_ee
					{
						OFFSET	-22.5	-16.5	-42.2
						CHANNELS 3  Xrotation Yrotation Zrotation
						End Site
						{
							OFFSET	1	0	0
						}
					}
				}
			}
		}
	}
	JOINT right_hip
	{
		OFFSET	82.8	-127.5	0.300001
		CHANNELS 3  Xrotation Yrotation Zrotation
		JOINT right_knee
		{
			OFFSET	28.2	-396.7	2.2
			CHANNELS 3  Xrotation Yrotation Zrotation
			JOINT right_ankle
			{
				OFFSET	11.7	-411.3	35.4
				CHANNELS 3  Xrotation Yrotation Zrotation
				JOINT right_toes
				{
					OFFSET	0	-60	-88.6
					CHANNELS 3  Xrotation Yrotation Zrotation
					JOINT right_foot_ee
					{
						OFFSET	22.5	-16.5	-42.2
						CHANNELS 3  Xrotation Yrotation Zrotation
						End Site
						{
							OFFSET	1	0	0
						}
					}
				}
			}
		}
	}
}
MOTION
Frames: 9
Frame Time: 0.02
809.324900964 610.827 -1844.91040055 9.18771424666 10.4078522853 1.10900731277 -0.879566 -0.6161 -3.17609 -0.874049 -0.412855 -3.20881 -0.846412 0.318489 -3.21953 -0.860823 -0.1937 -3.22943 -15.3883 6.64135 -0.818863 -15.5467 13.1926 1.49477 -0.0 0.0 -0.0 10.2807 18.0023 18.253 -4.74988 -19.404 61.05 1.94488 -43.9285 0.784434 -45.005 -3.49848 4.39651 -2.77976 23.167 -6.77936 -0.0 0.0 -0.0 0.486178 18.4903 1.12107 -20.3005 27.9555 -66.6563 0.351552 9.87911 -0.0303832 -18.194 0.983184 -2.09868 3.90773 12.6764 -21.384 0.0 0.0 0.0 10.9368 -30.7171 7.469 -25.2389 0.196791 3.83693 20.883 29.5907 -3.07362 -13.5338 0.0 0.0 -0.0 0.0 -0.0 3.82991 25.6305 4.90755 -40.9031 0.525218 -6.12423 -20.8542 21.413 -3.62501 40.1702 -0.0 -0.0 0.0 0.0 0.0 
811.189442822 610.827 -1847.5414136 9.16921023438 9.76403273007 1.21466725177 -0.879566 -0.6161 -3.17609 -0.874049 -0.412855 -3.20881 -0.846412 0.318489 -3.21953 -0.860823 -0.1937 -3.22943 -15.3883 6.64135 -0.818863 -15.5467 13.1926 1.49477 -0.0 0.0 -0.0 10.2807 18.0023 18.253 -4.74988 -19.404 61.05 1.94488 -43.9285 0.784434 -45.005 -3.49848 4.39651 -2.77976 23.167 -6.77936 -0.0 0.0 -0.0 0.486178 18.4903 1.12107 -20.3005 27.9555 -66.6563 0.351552 9.87911 -0.0303832 -18.194 0.983184 -2.09868 3.90773 12.6764 -21.384 0.0 0.0 0.0 10.9368 -30.7171 7.469 -25.2389 0.196791 3.83693 20.883 29.5907 -3.07362 -13.5338 0.0 0.0 -0.0 0.0 -0.0 3.82991 25.6305 4.90755 -40.9031 0.525218 -6.12423 -20.8542 21.413 -3.62501 40.1702 -0.0 -0.0 0.0 0.0 0.0 
780.361835649 616.621 -1876.81678817 9.49001361935 7.91287175026 0.67159705813 -0.494597 -0.296844 -3.25638 -0.488703 -0.0891437 -3.26865 -0.480098 0.627362 -3.20918 -0.49445 0.112941 -3.26792 -15.8104 6.50259 4.71811 -15.8349 9.72632 6.67923 -0.0 0.0 -0.0 9.94367 17.5366 17.7628 -4.00199 -17.8046 60.1504 2.18164 -47.2155 0.953581 -47.0076 -3.72532 4.51731 -3.10183 23.5884 -8.41367 -0.0 0.0 -0.0 0.420888 15.5087 0.930149 -20.8302 27.3686 -64.8816 0.36317 10.1988 -0.0324084 -16.0162 0.830908 -1.86513 4.15211 8.78278 -25.0721 0.0 0.0 0.0 11.0142 -25.6339 9.4386 -28.9353 0.0833733 4.39277 18.7119 29.9211 -2.78453 -12.8349 0.0 0.0 -0.0 0.0 -0.0 13.2822 19.6545 0.0433881 -43.3738 0.695237 -6.464 -19.4668 22.3792 -3.41694 40.1869 -0.0 -0.0 0.0 0.0 0.0 
777.855556575 617.975 -1874.92263132 8.86816228176 8.54300682741 0.352916377562 -0.497392 -0.212529 -3.23721 -0.491562 -0.00621641 -3.24417 -0.487883 0.703477 -3.16706 -0.501826 0.194745 -3.23833 -16.2286 5.88438 3.64378 -16.2735 9.19921 5.49476 -0.0 0.0 -0.0 10.0214 17.5411 17.8924 -3.91439 -17.1468 59.6275 2.24912 -48.084 1.00345 -47.6176 -3.79525 4.55254 -3.41813 22.8108 -10.7088 -0.0 0.0 -0.0 0.567567 15.1718 0.580992 -19.1362 27.1496 -65.4359 0.277918 7.83896 -0.0190415 -15.2355 0.778502 -1.78003 4.08553 8.13353 -24.8871 0.0 0.0 0.0 11.2049 -27.1484 9.62978 -28.8264 0.0872239 4.37651 19.6894 28.2754 -2.88539 -13.1638 0.0 0.0 -0.0 0.0 -0.0 13.8777 15.7595 0.448037 -43.2579 0.686936 -6.44823 -18.4996 22.6522 -3.25554 39.8138 -0.0 -0.0 0.0 0.0 0.0 
765.246213059 622.273 -1867.14985276 5.93363624834 9.73941229304 -0.392865782847 -0.194067 0.0113857 -2.85341 -0.189559 0.192858 -2.84692 -0.19722 0.797024 -2.73995 -0.20752 0.354481 -2.83135 -16.3228 7.52813 4.57758 -16.4021 11.8305 6.96547 -0.0 0.0 -0.0 10.0459 18.5121 17.7792 -3.08212 -14.6185 59.6126 2.39498 -49.8656 1.11351 -45.0656 -3.50527 4.40028 -2.82183 18.6868 -9.44752 -0.0 0.0 -0.0 1.51084 14.3963 -1.50017 -18.6156 26.2385 -63.6574 0.337974 9.50463 -0.0280972 -13.3911 0.659354 -1.57626 3.8487 7.29954 -23.5269 0.0 0.0 0.0 12.4278 -22.9442 10.2234 -24.9584 0.20393 3.79447 19.1037 30.7283 -2.85559 -13.0175 0.0 0.0 -0.0 0.0 -0.0 17.4082 1.91205 5.71522 -21.7208 -0.271223 -3.30227 -17.8028 27.2881 -3.30583 32.9879 -0.0 -0.0 0.0 0.0 0.0 
762.079954333 620.464 -1862.37197762 3.92005518778 11.5533579262 -0.496106551705 0.28084 0.0119181 -2.55644 0.284459 0.174513 -2.55051 0.277831 0.695233 -2.46018 0.269508 0.2981 -2.53904 -14.8548 7.25072 3.36924 -14.9409 11.8584 5.57639 -0.0 0.0 -0.0 10.0243 18.8503 17.6886 -3.68726 -15.1817 58.8997 2.35831 -49.4296 1.08556 -47.4084 -3.77122 4.54054 -3.39268 15.8534 -14.5874 -0.0 0.0 -0.0 2.10326 14.1522 -2.77624 -18.6197 25.5039 -63.4485 0.351353 9.87361 -0.030349 -13.2743 0.652034 -1.56323 3.7253 7.02975 -22.746 0.0 0.0 0.0 14.1477 -21.8877 10.0572 -23.7376 0.232571 3.60932 17.0666 30.2164 -2.56099 -13.2777 0.0 0.0 -0.0 0.0 -0.0 17.8855 -4.35601 3.08807 -13.3426 -0.315539 -2.01867 -19.6781 23.4915 -3.49581 29.8895 -0.0 -0.0 0.0 0.0 0.0 
757.810288119 620.204 -1859.58183992 2.56632555614 13.2359230894 -0.922074535632 0.875278 -0.133635 -2.16524 0.877886 0.00438265 -2.16936 0.878302 0.42788 -2.12677 0.872 0.086709 -2.16763 -14.0549 7.71108 3.76643 -14.1314 12.4226 6.01311 -0.0 0.0 -0.0 9.53268 19.9238 16.7222 -4.23288 -15.1228 59.1412 2.44672 -50.4676 1.15324 -46.1595 -3.62874 4.46712 -3.55396 14.8847 -16.1859 -0.0 0.0 -0.0 2.66637 12.6897 -4.09904 -18.3823 24.9443 -62.8182 0.341094 9.59075 -0.0286148 -12.8071 0.623009 -1.51096 3.75127 6.70209 -23.0851 0.0 0.0 0.0 15.7406 -19.5805 10.2156 -24.0833 0.224862 3.6618 15.7873 30.5285 -2.38548 -12.628 0.0 0.0 -0.0 0.0 -0.0 17.9636 -9.58231 3.81724 -9.9325 -0.279803 -1.49674 -20.5081 24.0617 -3.66694 27.0901 -0.0 -0.0 0.0 0.0 0.0 
753.093861862 621.293 -1870.07241168 0.736585295894 19.0450114649 -0.786862407926 1.18059 -0.0589954 -1.54318 1.18191 0.0393088 -1.54381 1.18103 0.331968 -1.50821 1.17786 0.089637 -1.5417 -9.91261 11.0461 6.13689 -9.90079 16.6563 8.71282 -0.0 0.0 -0.0 10.0547 21.3701 17.3071 -9.14354 -14.4782 55.2777 2.33694 -49.1718 1.06936 -43.1952 -3.2972 4.28058 -2.52292 6.74411 -13.7648 -0.0 0.0 -0.0 4.47303 17.8878 -7.48415 -17.4826 22.0352 -67.832 0.314711 8.86121 -0.0243848 -12.7744 0.62099 -1.50729 3.32622 6.13389 -20.255 0.0 0.0 0.0 14.3211 -13.5966 7.28041 -25.365 0.193514 3.856 20.3458 27.1832 -2.95251 -13.6845 0.0 0.0 -0.0 0.0 -0.0 16.4504 -16.9998 3.04051 -8.56188 -0.256697 -1.28769 -19.4882 17.0952 -3.25378 30.12 -0.0 -0.0 0.0 0.0 0.0 
751.959587971 621.709 -1871.35117257 0.436181455169 22.1231249299 -0.545873373109 1.22481 -0.301044 -1.521 1.22607 -0.20366 -1.53707 1.23182 0.0906879 -1.54785 1.22851 -0.154874 -1.54275 -9.04007 11.3658 6.04302 -9.01248 17.165 8.58339 -0.0 0.0 -0.0 9.97886 19.7201 17.4711 -10.6996 -14.6342 55.0508 2.32856 -49.0701 1.06302 -39.6686 -2.91599 4.03676 -2.14958 6.19776 -11.5347 -0.0 0.0 -0.0 3.80648 19.717 -5.88744 -17.0341 21.1888 -70.4324 0.402202 11.2682 -0.0396781 -12.8506 0.625688 -1.51583 3.25059 5.6569 -19.9212 0.0 0.0 0.0 12.9143 -12.0056 6.23278 -22.2368 0.262363 3.38095 18.4387 29.2977 -2.73454 -13.9677 0.0 0.0 -0.0 0.0 -0.0 16.9824 -16.2236 3.15501 -9.85016 -0.278556 -1.48417 -18.1551 12.2191 -2.92013 34.0631 -0.0 -0.0 0.0 0.0 0.0 
